<svg xmlns="http://www.w3.org/2000/svg" viewBox="0 0 500 500"><g id="freepik--background-simple--inject-904"><path d="M414.46,99.17a217.72,217.72,0,0,0-59.33-41.64c-32.72-15.3-68.75-22.67-104.79-23.11C145,33.14,137,156.86,104.63,174.07s-91.07,19.22-93.1,88c-1.27,43.28,8.83,87.78,37.24,121.51,26,30.88,64.25,46.53,101.91,58.1,42.3,13,87.15,25.72,131.64,17,45.65-9,77.72-45.14,115.22-69.57,23.6-15.38,44.79-31.58,59.37-56.26,1.74-2.95,3.37-6,4.92-9,19.52-38.35,23.34-82.59,12.58-124.09C464.76,162.5,443,127,414.46,99.17Z" style="fill:#92E3A9"></path><path d="M414.46,99.17a217.72,217.72,0,0,0-59.33-41.64c-32.72-15.3-68.75-22.67-104.79-23.11C145,33.14,137,156.86,104.63,174.07s-91.07,19.22-93.1,88c-1.27,43.28,8.83,87.78,37.24,121.51,26,30.88,64.25,46.53,101.91,58.1,42.3,13,87.15,25.72,131.64,17,45.65-9,77.72-45.14,115.22-69.57,23.6-15.38,44.79-31.58,59.37-56.26,1.74-2.95,3.37-6,4.92-9,19.52-38.35,23.34-82.59,12.58-124.09C464.76,162.5,443,127,414.46,99.17Z" style="fill:#fff;opacity:0.7000000000000001"></path></g><g id="freepik--Airplane--inject-904"><g style="opacity:0.2"><path d="M180.41,74.26,113.65,61.35,64.89,51.8a14.6,14.6,0,0,0-1.76-.23c-2.6-.2-9.78-.54-13.72,1.25C44.54,55,42.18,58.5,43.57,60.7S54,67.78,62.07,70.52,110.44,82,116.14,82.41s12.71.76,12.71.76,24.07,2.18,33.27,1.36,22.56-5,23.22-6.75S180.41,74.26,180.41,74.26Z" style="fill:#fff;stroke:#000;stroke-miterlimit:10"></path><path d="M155,69.87s7.25.58,10.52-1.24,16-20.36,16.77-20.56a60.39,60.39,0,0,1,6.5.26L180,75.79l-26.13-5.74Z" style="fill:#fff;stroke:#263238;stroke-miterlimit:10"></path><path d="M173,82.53s1.87-.64,2.95-1.07,3.49-1.29,4.85-2a4.72,4.72,0,0,0,2-1.93L215.89,74l-3.37-.27-35.65,2.36C176.84,79.71,173,82.53,173,82.53Z"></path><path d="M230.92,62.14,209.78,63.9l.7-.26-64.54,4-40.55,2.48s-4.94-.14-3.25,1.56l6.63,1.84s-12.5-.22-30.88-5.08-24.56-5.88-29.77-9.17a8.09,8.09,0,0,1-3.07-3.52h0c-1.75,1.75-2.35,3.61-1.48,5,1.29,2,9.18,6.42,16.82,9.23L60,69.84,48.69,68.41s-2.82-3.88-2.89-3.1-1.66,4.56-.63,4.64,13.45,1.34,13.45,1.34l-.29,3.64a1.42,1.42,0,1,0,1.39,1.83,1.59,1.59,0,0,0,.54.13,1,1,0,0,0,.17,0A5.54,5.54,0,0,0,65.07,82c3.58.81,13.91,2.16,17.16.59,2.36-1.13,1.36-4.86.64-6.83,4.36,1,8.92,2,13.23,2.9l-.23,2.94,2.78,1,2,3.82L99,87a2,2,0,0,0-1.72-1.66,2.23,2.23,0,0,0-.35,4.41,1.92,1.92,0,0,0,1.72-.91l2.64.21,0,.13a2.19,2.19,0,0,0-1.5,2,2.1,2.1,0,0,0,1.77,2.36,2.07,2.07,0,0,0,2.1-1.92l.19,0a1.9,1.9,0,0,0,1.55,1.14,2.22,2.22,0,0,0,.35-4.4,2,2,0,0,0-2,1.4l-1-.34-.23-3.66L101,82.5l.43-2.76c7.08,1.45,12.8,2.52,14.7,2.67,5.7.46,12.71.76,12.71.76s2.51.23,6.22.51L134.88,86H133a1.93,1.93,0,0,0-1.62-1.33,2.22,2.22,0,0,0-.35,4.4,1.92,1.92,0,0,0,1.81-1l1.9.31,0,.07a2.27,2.27,0,0,0-1.1,1.8,2.11,2.11,0,0,0,1.77,2.36,2,2,0,0,0,1.87-1.16l1.51.12a1.91,1.91,0,0,0,1.56,1.17,2.22,2.22,0,1,0-1.76-2.36l-1.06.18.16-6.64c7.83.55,18.86,1.16,24.44.66,1.61-.15,3.35-.4,5.13-.72h0a146.26,146.26,0,0,1-16.47-1c-7.73-1.14-7.91-2.2-7.91-2.2s1.3.1,1.38-.93.21-2.59.21-2.59S148,78.7,149,79s-1.41-1.93-1.41-1.93l10.55-1.51L161.6,78l1.31-.16-1.66-2,10.07-1.49.35,0,3.65,1.56,1.55.12-1.28-1.68-.37-1.12,9.3-1.54s3.46,2.36,5.32,2-.12-1.84-.12-1.84l3.68-.35,2.88-.16.21-2.59,4-1.47L235,63l4-4.12ZM65.06,72.32s-3.68-.51-4.5,2l-.09,0a2.28,2.28,0,0,0-.53,0l.23-2.85L71,73l1,.25Z"></path><path d="M136.34,71l-8.61.09s1,1.12,1.23,4.27,2,4.08,4.59,4.54,6.32-.79,6.31-3.92S139,70.94,136.34,71Z" style="fill:#fff"></path><polygon points="48.5 53.79 47.5 55.87 49.44 56.06 50.56 53.95 48.5 53.79" style="fill:#263238"></polygon><polygon points="57.16 56.8 58.73 56.95 57.88 54.54 57.23 54.49 57.16 56.8" style="fill:#263238"></polygon><polygon points="53.72 54.21 53.24 56.42 56.52 56.74 56.59 54.44 53.72 54.21" style="fill:#263238"></polygon><polygon points="53.08 54.16 51.25 54.01 50.13 56.12 52.6 56.36 53.08 54.16" style="fill:#263238"></polygon><path d="M47.82,53.74l-.15,0a13.93,13.93,0,0,0-2.54,1.92l1.69.16Z" style="fill:#263238"></path></g></g><g id="freepik--Floor--inject-904"><line x1="19" y1="426" x2="488" y2="426" style="fill:none;stroke:#263238;stroke-miterlimit:10"></line></g><g id="freepik--Window--inject-904"><rect x="18.93" y="322.48" width="468.07" height="10.3" style="fill:#263238"></rect><line x1="363.14" y1="327.6" x2="363.14" y2="39.2" style="fill:none;stroke:#263238;stroke-linecap:round;stroke-linejoin:round"></line><line x1="181.23" y1="327.6" x2="181.23" y2="40.37" style="fill:none;stroke:#263238;stroke-linecap:round;stroke-linejoin:round"></line><line x1="22" y1="221.04" x2="490.4" y2="221.04" style="fill:none;stroke:#263238;stroke-linecap:round;stroke-linejoin:round"></line><line x1="25.63" y1="105.34" x2="472.53" y2="105.34" style="fill:none;stroke:#263238;stroke-linecap:round;stroke-linejoin:round"></line><line x1="245.55" y1="165.81" x2="240.85" y2="168.49" style="fill:none;stroke:#263238;stroke-linecap:round;stroke-linejoin:round;stroke-width:0.5px"></line><line x1="324.88" y1="120.67" x2="251.87" y2="162.21" style="fill:none;stroke:#263238;stroke-linecap:round;stroke-linejoin:round;stroke-width:0.5px"></line><line x1="334.51" y1="123.47" x2="276.02" y2="156.76" style="fill:none;stroke:#263238;stroke-linecap:round;stroke-linejoin:round;stroke-width:0.5px"></line><line x1="360.05" y1="108.93" x2="342.39" y2="118.99" style="fill:none;stroke:#263238;stroke-linecap:round;stroke-linejoin:round;stroke-width:0.5px"></line><line x1="46.55" y1="167.81" x2="41.85" y2="170.49" style="fill:none;stroke:#263238;stroke-linecap:round;stroke-linejoin:round;stroke-width:0.5px"></line><line x1="125.88" y1="122.67" x2="52.87" y2="164.21" style="fill:none;stroke:#263238;stroke-linecap:round;stroke-linejoin:round;stroke-width:0.5px"></line><line x1="135.51" y1="125.47" x2="77.02" y2="158.76" style="fill:none;stroke:#263238;stroke-linecap:round;stroke-linejoin:round;stroke-width:0.5px"></line><line x1="161.05" y1="110.93" x2="143.39" y2="120.99" style="fill:none;stroke:#263238;stroke-linecap:round;stroke-linejoin:round;stroke-width:0.5px"></line><line x1="53.88" y1="309.15" x2="49.17" y2="311.83" style="fill:none;stroke:#263238;stroke-linecap:round;stroke-linejoin:round;stroke-width:0.5px"></line><line x1="133.2" y1="264" x2="60.2" y2="305.55" style="fill:none;stroke:#263238;stroke-linecap:round;stroke-linejoin:round;stroke-width:0.5px"></line><line x1="142.84" y1="266.81" x2="84.35" y2="300.1" style="fill:none;stroke:#263238;stroke-linecap:round;stroke-linejoin:round;stroke-width:0.5px"></line><line x1="168.38" y1="252.27" x2="150.72" y2="262.33" style="fill:none;stroke:#263238;stroke-linecap:round;stroke-linejoin:round;stroke-width:0.5px"></line><line x1="321.29" y1="312.61" x2="316.58" y2="315.28" style="fill:none;stroke:#263238;stroke-linecap:round;stroke-linejoin:round;stroke-width:0.5px"></line><line x1="400.61" y1="267.46" x2="327.61" y2="309.01" style="fill:none;stroke:#263238;stroke-linecap:round;stroke-linejoin:round;stroke-width:0.5px"></line><line x1="410.24" y1="270.26" x2="351.75" y2="303.55" style="fill:none;stroke:#263238;stroke-linecap:round;stroke-linejoin:round;stroke-width:0.5px"></line></g><g id="freepik--Plant--inject-904"><path d="M405.82,299c2.55,1.12,8.79,1,8.8,1s-1.34-4.09-1.46-4.34c-1.37-2.87-5.71-7.6-9.23-7.12a4.2,4.2,0,0,0-3.38,5.27C401.13,296.23,403.64,298,405.82,299Z" style="fill:#263238"></path><path d="M408,317.08c2.65.39,8.22-1.23,8.67-1.36a73.49,73.49,0,0,0,3.38,9.35c.76,1.78,1.59,3.54,2.44,5.3-.51-.74-1-1.4-1-1.49-2.08-2.4-7.51-5.82-10.78-4.43a4.21,4.21,0,0,0-1.87,6c1.21,2.2,4.11,3.29,6.46,3.63s7.16-.93,8.42-1.29l1,2c1.62,3.22,3.24,6.42,4.74,9.61.53,1.12,1,2.24,1.49,3.37-.45-.66-.84-1.22-.91-1.29-2.07-2.41-7.5-5.83-10.78-4.44a4.21,4.21,0,0,0-1.86,6c1.21,2.2,4.1,3.29,6.45,3.63s6.7-.82,8.2-1.23c.46,1.16.92,2.33,1.31,3.48.25.79.55,1.54.76,2.35s.44,1.59.66,2.37c.36,1.52.75,3.08,1.07,4.58.23,1,.43,2,.63,3-.51-1.12-1.56-3.3-1.67-3.47-1.69-2.69-6.54-6.9-10-6a4.21,4.21,0,0,0-2.75,5.63c.86,2.36,3.56,3.87,5.83,4.57,2.5.76,8,.06,8.72,0,.33,1.66.64,3.27.91,4.79.93,5.28,1.5,9.72,1.86,12.83.06.55.12,1,.17,1.51H428.77l1.3,47.73h23.47l1.3-47.73h-10l.22-.46c1.37-2.85,3.27-6.95,5.32-12,.65-1.58,1.32-3.29,2-5,.67.14,6.15,1.25,8.7.67,2.32-.52,5.12-1.83,6.16-4.12a4.22,4.22,0,0,0-2.33-5.82c-3.37-1.13-8.52,2.7-10.41,5.26-.11.15-1.13,1.92-1.76,3.05.27-.72.54-1.42.8-2.16.54-1.47,1-2.95,1.57-4.54.24-.78.47-1.56.71-2.35s.42-1.64.63-2.47c.46-1.92.83-3.9,1.16-5.9,1.29.47,5.88,2.07,8.26,1.9s5.33-1,6.7-3.14a4.2,4.2,0,0,0-1.41-6.1c-3.16-1.63-8.83,1.37-11.09,3.61-.14.14-1.57,1.93-2.34,2.93.19-1.2.38-2.4.53-3.62.44-3.53.78-7.11,1.12-10.69.11-1.09.23-2.18.34-3.27.46.17,5.88,2.18,8.54,2,2.37-.17,5.34-1,6.71-3.15a4.21,4.21,0,0,0-1.42-6.1c-3.16-1.63-8.83,1.38-11.08,3.62-.17.17-2.23,2.74-2.73,3.43.26-2.41.53-4.8.9-7.15a75.23,75.23,0,0,1,2.05-9.4c.21.09,5.86,2.21,8.58,2,2.37-.16,5.34-1,6.71-3.14a4.2,4.2,0,0,0-1.41-6.1c-3.17-1.63-8.83,1.37-11.09,3.61-.17.18-2.39,3-2.76,3.49.06-.18.09-.37.15-.55a53.28,53.28,0,0,1,3.72-8.89c.81-1.58,1.67-3.05,2.54-4.46,1,.5,5.65,2.76,8.13,2.86s5.42-.45,7-2.39a4.2,4.2,0,0,0-.74-6.22c-3-2-8.92.39-11.41,2.37-.13.11-1.39,1.36-2.29,2.28.41-.63.81-1.29,1.21-1.88,1.49-2.25,3-4.21,4.33-5.93.77-1,1.49-1.84,2.17-2.65,1.25,0,6.28-.17,8.49-1.21s4.6-2.89,5.12-5.34a4.22,4.22,0,0,0-3.52-5.19c-3.54-.38-7.74,4.47-9,7.37-.11.25-1.4,4.38-1.34,4.38h.08c-.67.76-1.38,1.58-2.14,2.49-1.38,1.7-2.93,3.64-4.47,5.85a73.9,73.9,0,0,0-4.64,7.4,55.07,55.07,0,0,0-4,8.92l0,.11c0-1,0-4-.05-4.18-.41-3.15-3-9-6.55-9.65a4.22,4.22,0,0,0-4.86,4c-.2,2.51,1.61,5,3.38,6.59,2,1.79,7.54,3.51,8,3.65a74.18,74.18,0,0,0-2.34,9.67c-.34,1.9-.62,3.83-.88,5.76,0-.9,0-1.7-.05-1.82-.41-3.15-3-9-6.55-9.64a4.21,4.21,0,0,0-4.86,4c-.2,2.5,1.61,5,3.38,6.59s6.49,3.17,7.74,3.57c-.09.74-.19,1.48-.28,2.23-.42,3.57-.83,7.13-1.34,10.62-.18,1.23-.41,2.43-.62,3.63,0-.8,0-1.47-.05-1.57-.4-3.16-3.05-9-6.54-9.65a4.21,4.21,0,0,0-4.86,4c-.21,2.5,1.61,5,3.38,6.59s6,3,7.51,3.5c-.26,1.22-.51,2.45-.82,3.63-.23.8-.39,1.58-.67,2.37l-.75,2.34c-.54,1.47-1.08,3-1.64,4.41-.38,1-.76,1.93-1.14,2.87.2-1.22.52-3.62.53-3.82a16.24,16.24,0,0,0-2.2-7.95,4.79,4.79,0,0,0-.05-.93,4.22,4.22,0,0,0-5.15-3.58c-3.44.92-5.62,6.95-5.78,10.13,0,.19.11,2.23.21,3.52-.18-.75-.34-1.48-.52-2.25-.36-1.52-.77-3-1.2-4.65-.23-.78-.47-1.56-.71-2.35s-.55-1.6-.83-2.41c-.68-1.86-1.46-3.71-2.29-5.56,1.33-.31,6-1.51,7.94-3s3.88-3.8,3.86-6.32a4.22,4.22,0,0,0-4.55-4.31c-3.54.39-6.61,6-7.25,9.13,0,.2-.25,2.48-.34,3.74-.51-1.11-1-2.21-1.55-3.32-1.58-3.18-3.28-6.35-5-9.53l-1.52-2.92c.48-.11,6.11-1.41,8.22-3,1.89-1.44,3.88-3.81,3.87-6.32a4.21,4.21,0,0,0-4.55-4.31c-3.54.38-6.61,6-7.25,9.13,0,.24-.35,3.52-.38,4.36-1.12-2.14-2.21-4.29-3.2-6.45a76.27,76.27,0,0,1-3.47-9c.22-.05,6.1-1.39,8.27-3.05,1.89-1.44,3.88-3.81,3.87-6.32a4.21,4.21,0,0,0-4.55-4.31c-3.54.38-6.61,6-7.25,9.13-.05.24-.37,3.78-.38,4.43-.06-.18-.13-.36-.18-.54a54.53,54.53,0,0,1-1.81-9.47c-.19-1.76-.28-3.46-.34-5.12,1.13-.14,6.24-.82,8.36-2.1s4.27-3.36,4.53-5.86a4.21,4.21,0,0,0-4-4.78c-3.56,0-7.23,5.25-8.21,8.28-.06.16-.41,1.89-.66,3.16,0-.75,0-1.52,0-2.24,0-2.69.18-5.15.34-7.33.11-1.24.23-2.36.35-3.41,1-.71,5.15-3.61,6.41-5.69s2.25-5,1.33-7.28a4.22,4.22,0,0,0-5.8-2.39c-3.16,1.64-4,8-3.47,11.14.05.27,1.24,4.42,1.29,4.38l.07,0c-.14,1-.28,2.08-.41,3.26-.21,2.18-.44,4.65-.5,7.35a74.62,74.62,0,0,0,.21,8.73,54.85,54.85,0,0,0,1.61,9.63s0,.07,0,.11c-.56-.88-2.21-3.29-2.35-3.46-2.08-2.4-7.51-5.82-10.79-4.43a4.2,4.2,0,0,0-1.86,6C402.73,315.65,405.62,316.74,408,317.08Zm35.28,46.64c1.83,2,6.49,4.28,7.1,4.57-.64,1.56-1.27,3.07-1.89,4.49-2.14,4.92-4.11,8.94-5.52,11.73l-.78,1.52h-.24c-.07-.55-.14-1.14-.24-1.81-.43-3.14-1.11-7.6-2.16-12.92-.33-1.68-.72-3.46-1.13-5.3A46.43,46.43,0,0,0,443.25,363.72Z" style="fill:#263238"></path><path d="M469,300.36c.05,0,1.13-4.15,1.17-4.42.44-3.14-.56-9.48-3.77-11a4.2,4.2,0,0,0-5.73,2.54c-.86,2.36.23,5.25,1.52,7.25C463.7,297,469,300.36,469,300.36Z" style="fill:#263238"></path></g><g id="freepik--Device--inject-904"><rect x="201.33" y="72.57" width="201.83" height="373.89" style="fill:#fff"></rect><rect x="201.33" y="416.7" width="201.83" height="29.76" style="fill:#bababa"></rect><path d="M409.22,146.13a2.48,2.48,0,0,0,2.49-2.49V118.71a2.48,2.48,0,0,0-2.49-2.49,2.42,2.42,0,0,0-.47,0V69.63a16.06,16.06,0,0,0-16.07-16.07H215.53a16.07,16.07,0,0,0-16.08,16.07v376.3A16.08,16.08,0,0,0,215.53,462H392.68a16.07,16.07,0,0,0,16.07-16.07V217a2.42,2.42,0,0,0,.47.05,2.49,2.49,0,0,0,2.49-2.5V189.62a2.49,2.49,0,0,0-2.49-2.49,2.42,2.42,0,0,0-.47.05v-5.64a2.42,2.42,0,0,0,.47.05,2.49,2.49,0,0,0,2.49-2.49V154.17a2.49,2.49,0,0,0-2.49-2.5,2.42,2.42,0,0,0-.47.05v-5.63A2.42,2.42,0,0,0,409.22,146.13Zm-9.78,291.63H208.76V81.3H399.44Z" style="fill:#263238"></path><rect x="377.15" y="84.99" width="15.81" height="8.67" style="fill:none;stroke:#263238;stroke-linecap:round;stroke-linejoin:round;stroke-width:0.821067px"></rect><rect x="377.15" y="84.99" width="12.33" height="8.67" style="fill:#263238;stroke:#263238;stroke-linecap:round;stroke-linejoin:round;stroke-width:0.725073px"></rect><rect x="392.92" y="87.42" width="2.23" height="3.82" style="fill:#263238;stroke:#263238;stroke-linecap:round;stroke-linejoin:round;stroke-width:0.725073px"></rect><rect x="213.06" y="87.68" width="2.9" height="4.97" style="fill:#263238;stroke:#263238;stroke-linecap:round;stroke-linejoin:round;stroke-width:0.8830859999999999px"></rect><rect x="217.61" y="85.94" width="2.9" height="6.71" style="fill:#263238;stroke:#263238;stroke-linecap:round;stroke-linejoin:round;stroke-width:0.8830859999999999px"></rect><rect x="222.17" y="83.88" width="2.9" height="8.78" style="fill:#263238;stroke:#263238;stroke-linecap:round;stroke-linejoin:round;stroke-width:0.8830859999999999px"></rect><rect x="211.84" y="98.48" width="183.11" height="26.79" style="fill:#92E3A9"></rect><path d="M407.1,217a2.42,2.42,0,0,0,.47.05,2.49,2.49,0,0,0,2.49-2.5v-8.93l-12.27,21.64v210.5H278.42L264.68,462H391a16.08,16.08,0,0,0,16.07-16.07Z" style="fill:#fff;opacity:0.15"></path></g><g id="freepik--Character--inject-904"><path d="M69.39,452.44a3.72,3.72,0,1,1-3.72-3.72A3.72,3.72,0,0,1,69.39,452.44Z" style="fill:#263238;stroke:#263238;stroke-miterlimit:10"></path><path d="M75.89,373s-30.43-1.16-33.91.7-7.67,10-6.74,15.33,23.69,59.24,23.69,59.24a6.26,6.26,0,0,1,2.33.92c.93.7,5.8,1.86,5.8,1.86s4.18,3.72,7,3.72,27.18-.7,30.43-.93,10-7.67,7.44-16-18.82-61.09-21.14-63.18S75.89,373,75.89,373Z" style="fill:#949494;stroke:#263238;stroke-miterlimit:10"></path><path d="M52.89,379s-3,4.42-2.09,7-.23,6,3,6,21.37.93,23,.23-.46-4.64-.46-7,2.32-5.11.46-6S52.89,379,52.89,379Z" style="fill:#fff;stroke:#263238;stroke-miterlimit:10"></path><path d="M53.91,388.17s-.75-3.74,3.37-3.74H78.6" style="fill:none;stroke:#263238;stroke-miterlimit:10"></path><line x1="35.94" y1="386.47" x2="48.25" y2="386.7" style="fill:none;stroke:#263238;stroke-miterlimit:10"></line><line x1="52.43" y1="394.36" x2="69.39" y2="445.24" style="fill:none;stroke:#263238;stroke-miterlimit:10"></line><path d="M102.52,184.15l-15.66,8.49S79.26,258,77.92,266s-3.58,29.08-3.58,29.08a215.31,215.31,0,0,0,58.85.91l1.54-91.27-9.4-18.34Z" style="fill:#fff;stroke:#263238;stroke-miterlimit:10"></path><path d="M75.12,195.83s-6.39,6.66-6.39,9.59-.54,46.09-.54,46.09L63.4,274.15,73.25,276l9.33-57.54Z" style="fill:#92E3A9;stroke:#263238;stroke-miterlimit:10"></path><path d="M55.19,387.25,41.31,322.41l2.73-.58,13.87,64.84a1.38,1.38,0,0,1-1.07,1.65h0A1.38,1.38,0,0,1,55.19,387.25Z" style="fill:#fff;stroke:#263238;stroke-miterlimit:10"></path><rect x="55.33" y="306.21" width="3.72" height="29.5" transform="translate(-264.63 373.09) rotate(-89.1)" style="fill:#263238;stroke:#263238;stroke-miterlimit:10"></rect><path d="M63.4,274.15l-9.32,37s-6.13,0-7.46,1.6-3.5,6.22-5.1,7.29-4.23,3.1-2.89,3.63,2.13,1.07,4.79,0,5.33-4.52,5.33-4.52l15.74.1a19.58,19.58,0,0,0,2.11-5.7,14.91,14.91,0,0,0-.54-5.06l7.73-30.1Z" style="fill:#fff;stroke:#263238;stroke-miterlimit:10"></path><path d="M47.77,321.52s-2.52,5.41-1.15,6a4.18,4.18,0,0,0,1.32.26,3.09,3.09,0,0,0,3.12-2.44,18.46,18.46,0,0,0,.47-2.73C51.53,321.63,49.89,320.43,47.77,321.52Z" style="fill:#fff;stroke:#263238;stroke-miterlimit:10"></path><path d="M51.89,322.31s-2.52,5.41-1.14,6a3.82,3.82,0,0,0,1.31.25,3.09,3.09,0,0,0,3.13-2.44,18.38,18.38,0,0,0,.47-2.72C55.66,322.42,54,321.22,51.89,322.31Z" style="fill:#fff;stroke:#263238;stroke-miterlimit:10"></path><path d="M55.92,321.83s-2.05,4.41-.93,4.89a3.28,3.28,0,0,0,1.07.21,2.52,2.52,0,0,0,2.55-2,15.48,15.48,0,0,0,.38-2.22C59,321.92,57.65,321,55.92,321.83Z" style="fill:#fff;stroke:#263238;stroke-miterlimit:10"></path><path d="M59.85,321.25s-2.05,4.4-.93,4.88a3.18,3.18,0,0,0,1.07.21,2.51,2.51,0,0,0,2.54-2,14.46,14.46,0,0,0,.39-2.22C62.92,321.33,61.58,320.36,59.85,321.25Z" style="fill:#fff;stroke:#263238;stroke-miterlimit:10"></path><path d="M63.1,267.25l-1.58,8.49a1.36,1.36,0,0,0,1.09,1.59L70,278.68a1.36,1.36,0,0,0,1.6-1.15l1-7.12a1.37,1.37,0,0,0-.85-1.45l-6.79-2.72A1.35,1.35,0,0,0,63.1,267.25Z" style="fill:#fff;stroke:#263238;stroke-miterlimit:10"></path><path d="M124.42,431l.53.38c1.7,1.25,7,5.22,8.09,6.59,1.23,1.64.82,4.52-.62,6.57a20.65,20.65,0,0,0-4.1,8.82c-.62,3.9.2,6.56-2.67,8s-6.56,1.23-7.59,1.23-7.79-1.23-4.72-3.28,3.69-4.72,3.69-9.44-5.53-13.33-5.53-13.33l8.41-9.65Z" style="fill:#fff;stroke:#263238;stroke-miterlimit:10"></path><path d="M131.7,436.69c-1.29,2.79-3.5,7.83-3.79,10.14-.41,3.29-.82,8.82-2.26,11.7s-3.49,3.28-6.15,2.87c-2.11-.33-4.85-1.28-6.72-1.57-1.44,1.76,4.34,2.8,5.28,2.8s4.72.2,7.59-1.23,2-4.1,2.67-8a20.65,20.65,0,0,1,4.1-8.82c1.44-2.05,1.85-4.93.62-6.57A12,12,0,0,0,131.7,436.69Z" style="fill:#fff;stroke:#263238;stroke-miterlimit:10"></path><path d="M104.73,450.73S96.11,461.4,91.39,463s-5.54,2.87-5.13,4.72S90,469.81,97.75,471s18.67-2.67,21.54-3.08,3.69-1,3.69-3.48-.82-12.52-.82-12.52S108.42,452.37,104.73,450.73Z" style="fill:#fff;stroke:#263238;stroke-miterlimit:10"></path><path d="M86.19,466.74a3,3,0,0,0,.07,1c.41,1.84,3.7,2.05,11.49,3.28s18.67-2.67,21.54-3.08,3.69-1,3.69-3.48c0-.17,0-.38,0-.61-4.82,1.67-14.61,4.82-20.91,5.12A51.88,51.88,0,0,1,86.19,466.74Z" style="fill:#fff;stroke:#263238;stroke-miterlimit:10"></path><path d="M67.66,310.38s4.26,70.59,8.26,79.91,28.77,43.42,29.57,43.95.8,5.33.8,5.33l-1.34,4a5.55,5.55,0,0,0-1.59,3.19v5.33a47,47,0,0,0,10.38,2.66c5.86.8,8.53-1.06,8.53-1.06s.27-3.73,1.06-4.26,1.34-6.13,1.6-8-.53-5.86-.53-6.65,5.33-33.84,5.59-45-1.86-26.11-1.86-26.11l5.06-53.27V296S109,297.06,94.3,297.06a65.23,65.23,0,0,1-25-4.8Z" style="fill:#263238;stroke:#263238;stroke-miterlimit:10"></path><path d="M106.26,427.8a54.84,54.84,0,0,1,0,5.91" style="fill:none;stroke:gray;stroke-miterlimit:10"></path><path d="M90,325.83l8,4.52s.8,51.15,2.66,61.8c1.62,9.26,4,23.55,5,30.28" style="fill:none;stroke:gray;stroke-miterlimit:10"></path><line x1="92.17" y1="299.45" x2="91.64" y2="315.17" style="fill:none;stroke:gray;stroke-miterlimit:10"></line><line x1="95.36" y1="298.39" x2="94.57" y2="309.04" style="fill:none;stroke:gray;stroke-miterlimit:10"></line><path d="M97.23,187.31s-4.8,17.58-7.46,26.37-10.92,65.53-10.12,79.11a99,99,0,0,1-1.33,23.71l-14.39-1.86s2.67-19.71,4.8-32,7.45-46.35,7.45-46.35l2.14-42.62s10.12-5.33,13.85-6.66S97.23,187.31,97.23,187.31Z" style="fill:#92E3A9;stroke:#263238;stroke-miterlimit:10"></path><path d="M98.83,178s-7.46,8-7.73,9.86S86,199.3,86.57,200.36s5.33-4,5.33-4l1.33,4.27L97.76,186Z" style="fill:#fff;stroke:#263238;stroke-miterlimit:10"></path><line x1="91.9" y1="196.36" x2="91.64" y2="189.44" style="fill:#fff;stroke:#263238;stroke-miterlimit:10"></line><path d="M98.83,168.93s-2.4,21.84-1.87,24.5,3.2,12.52,14.92,9.33c7.64-2.09,8.52-10.12,8.52-13s.54-20.78.54-20.78Z" style="fill:#fff;stroke:#263238;stroke-miterlimit:10"></path><path d="M98.79,169.24c-.14,1.29-.69,6.49-1.17,11.77,2.5,1.55,6.55,2.72,12.13.18,6.68-3,8.75-5,9.39-5.93.32-.48.28-.71.28-.71Z" style="fill:#263238;stroke:#263238;stroke-miterlimit:10"></path><path d="M94.57,133s-2.93,4.79-2.67,7.46,1.6,26.9,3.73,30.63,9.59,9.32,14.12,10.12,13.85-7.72,15.18-10.92,0-31.16.54-33.3-9.33-10.12-16.79-10.12S94.57,133,94.57,133Z" style="fill:#fff;stroke:#263238;stroke-miterlimit:10"></path><path d="M112.41,153.76s.8,10.12.54,10.92-3.2,2.13-5.07-.27" style="fill:none;stroke:#263238;stroke-miterlimit:10"></path><path d="M103.09,167.61s7.46,4.53,14.92.53" style="fill:none;stroke:#263238;stroke-miterlimit:10"></path><path d="M99.09,149.23s3.2-2.93,7.73-.27" style="fill:none;stroke:#263238;stroke-miterlimit:10"></path><path d="M113.21,149.23s5.86-3.47,8.79.8" style="fill:none;stroke:#263238;stroke-miterlimit:10"></path><ellipse cx="103.76" cy="154.16" rx="1.2" ry="1.73" style="fill:#263238"></ellipse><ellipse cx="118.01" cy="154.16" rx="1.2" ry="1.73" style="fill:#263238"></ellipse><path d="M93,153h1.86l-.26-5.6s2.93-1.33,3.19-2.13-1.33-3.19-.26-5.59a16.56,16.56,0,0,1,4-4.8,85.94,85.94,0,0,0,12.25,4.53,39.15,39.15,0,0,0,8.53,1.33l1.06,4,.8,1.6v8.26h2.13l.27-8.53s4.8-2.66,5.06-6.39-1.6-13.32-10.39-17.32-20.51-2.66-26.1,2.67-3.73,10.65-3.73,10.65a3.35,3.35,0,0,0-.8,4.26C91.9,142.57,93,153,93,153Z" style="fill:#263238;stroke:#263238;stroke-miterlimit:10"></path><path d="M93,153s-2.67-3.73-3.47.8,4,8.52,4,8.52Z" style="fill:none;stroke:#263238;stroke-miterlimit:10"></path><path d="M126,153s3.19-3.2,4,.8-4.26,8.52-4.26,8.52Z" style="fill:#fff;stroke:#263238;stroke-miterlimit:10"></path><path d="M156.63,217.94s6.13,5.6,8.79,10.12,2.4,7.46,3.73,13.86,3.46,13.58,2.93,15.18-3.73,1.86-3.73,1.86-1.86,14.92-2.66,21.58-8,8.53-14.12,9.06-15.45-8.79-18.91-16.52,2.93-54.61,5.86-57.8S156.63,217.94,156.63,217.94Z" style="fill:#263238;stroke:#263238;stroke-miterlimit:10"></path><path d="M118,196.36s-8.26,33.3-8,59.14-1.34,41-.8,43.95S109,317.3,109,317.3s2.66,1.07,12.79,1.87,24.15-3.63,24.15-3.63-2.31-41.66-2.31-49.12,4.79-37.56,4.79-37.56S150.24,195,147,191.3s-24.24-5.86-24.24-5.86Z" style="fill:#92E3A9;stroke:#263238;stroke-miterlimit:10"></path><path d="M120.4,178.52s.8-1.33,2.14,1.6S124.4,186,125.47,191s.79,13.32.79,13.32L121.74,199l-4.8.8s2.66-8.26,2.93-11.46S120.4,178.52,120.4,178.52Z" style="fill:#fff;stroke:#263238;stroke-miterlimit:10"></path><path d="M88.17,188.37l-11.45,45s-2.93-34.36-2.4-36S81,188.64,88.17,188.37Z" style="fill:#263238;stroke:#263238;stroke-miterlimit:10"></path><path d="M131.86,219.27s17.31,41.83,18.91,44.49,4.8,10.12,4.8,10.12l-5.06-.8s-16.79-33.3-19.72-38.89-5.86-13.85-5.86-14.92S131.86,219.27,131.86,219.27Z" style="fill:#263238;stroke:#263238;stroke-miterlimit:10"></path><path d="M144.64,189.71s-6.12,4.52-10.38,17.31,10.29,36.88-2.14,26.37c-1.43-1.21-9.32-12-9.32-22.64s4.8-25,4.8-25S138.52,185.18,144.64,189.71Z" style="fill:#263238;stroke:#263238;stroke-miterlimit:10"></path><path d="M135.06,208.85c.35,6.43,2.14,9.65,2.14,9.65s1.79,2.14,8.57,4.64,13.57,2.5,16.79,1.79,8.57-5.36,8.57-14.65,0-13.57-4.29-16.78-10.71-1.79-10.71-1.79a19.75,19.75,0,0,1-5.36-1.78,8.58,8.58,0,0,0-6.13-.22s-7.08,5.57-7.08,9.14" style="fill:#92E3A9;stroke:#263238;stroke-miterlimit:10"></path><path d="M154.7,196s-8.93,3.21-8.93,7.85-2.14,12.15.72,15.36,8.21,7.86,14.28,8.22,11.43-4.65,12.14-11.43-2.14-13.93-4.64-16.79S154.7,196,154.7,196Z" style="fill:#fff;stroke:#263238;stroke-miterlimit:10"></path><path d="M150.06,214.93a19.92,19.92,0,0,1,.35-11.79c2.15-6.79,2.6-20.78,2.6-20.78s15,1.19,16.42,1.55,1,21.37,1.34,29.94S154,224.57,150.06,214.93Z" style="fill:#fff;stroke:#263238;stroke-miterlimit:10"></path><path d="M162.2,189.21s-6.07-.36-10-3.93-6.43-14.28-4.64-16.78,9.28-2.14,12.14-6.43,7.5-8.93,10-2.86,5.71,9.29,3.57,18.22S169.7,188.85,162.2,189.21Z" style="fill:#fff;stroke:#263238;stroke-miterlimit:10"></path><path d="M163,148.53s1.32-3,3.2-1.69-.38,7-1.88,8.1S163,148.53,163,148.53Z" style="fill:#fff;stroke:#263238;stroke-miterlimit:10"></path><rect x="151.05" y="151.45" width="18.91" height="35.02" transform="translate(-40.82 51.58) rotate(-16.23)" style="fill:#fff"></rect><path d="M152.9,160.51l.18.62-.15,0-.4-1.37.15,0,.18.62.34-.1-.18-.62.15,0,.4,1.37-.15,0-.18-.61Z" style="fill:#263238"></path><path d="M154,160l0,.13-.34.1.15.49.41-.12,0,.14-.57.16-.39-1.37.56-.16,0,.14-.41.12.13.46Z" style="fill:#263238"></path><path d="M154.5,160.42l0,.29-.14,0-.14-1.45.22-.06.67,1.29-.16.05-.13-.26Zm0-.14.31-.09-.39-.75Z" style="fill:#263238"></path><path d="M155.25,160.5l-.39-1.37.15,0,.36,1.23.39-.11,0,.14Z" style="fill:#263238"></path><path d="M156,160.28l-.35-1.24-.26.08,0-.14.66-.19,0,.14-.25.07.35,1.23Z" style="fill:#263238"></path><path d="M156.49,159.47l.18.61-.15,0-.4-1.37.15,0,.18.62.34-.1-.18-.61.15-.05.4,1.37L157,160l-.18-.62Z" style="fill:#263238"></path><path d="M157.52,158.35a.3.3,0,0,1,.41.25l0,.16a.3.3,0,0,1-.23.42l-.13,0,.15.54-.15.05-.4-1.37Zm.19.7c.12,0,.16-.1.12-.24l-.06-.18c0-.12-.1-.17-.21-.14l-.14,0,.16.56Z" style="fill:#263238"></path><path d="M158.4,159.28l0,.29-.14.05-.13-1.45.22-.07.66,1.3-.15,0-.14-.26Zm0-.13.3-.09-.38-.75Z" style="fill:#263238"></path><path d="M159.44,158.15v0l-.15,0v0c0-.12-.1-.18-.21-.15s-.14.12-.1.24c.09.31.56.21.67.59a.31.31,0,0,1-.21.43c-.21.07-.35,0-.41-.25l0-.08.14,0,0,.09c0,.12.1.18.21.15s.14-.12.11-.25c-.09-.3-.56-.2-.67-.58-.06-.21,0-.37.2-.43A.31.31,0,0,1,159.44,158.15Z" style="fill:#263238"></path><path d="M160.17,157.94v0l-.15,0V158c0-.12-.1-.18-.21-.15s-.14.12-.1.24c.09.31.55.2.67.59a.32.32,0,1,1-.62.18l0-.08.14,0,0,.09c0,.12.11.18.22.14s.14-.11.11-.24c-.09-.3-.56-.2-.67-.58-.06-.22,0-.38.2-.44S160.11,157.73,160.17,157.94Z" style="fill:#263238"></path><path d="M160.51,157.48c.21-.06.34,0,.4.25l.05.16a.31.31,0,0,1-.23.43l-.13,0,.16.54-.16,0-.39-1.37Zm.18.7c.12,0,.16-.1.12-.23l-.05-.19c0-.12-.1-.17-.21-.14l-.15,0,.16.56Z" style="fill:#263238"></path><path d="M161,157.69a.32.32,0,1,1,.62-.18l.21.71a.31.31,0,0,1-.21.43.31.31,0,0,1-.42-.25Zm.36.68c0,.12.11.18.22.15s.14-.12.1-.25l-.21-.72c0-.13-.11-.19-.22-.15s-.14.12-.11.24Z" style="fill:#263238"></path><path d="M162,157.05a.28.28,0,0,1,.39.22l0,.11a.28.28,0,0,1-.09.34c.14,0,.21.08.25.23l.07.21a.26.26,0,0,0,.07.16l-.15.05a.46.46,0,0,1-.08-.16l-.06-.22a.18.18,0,0,0-.26-.14l-.11,0,.17.58-.15,0-.4-1.37Zm.15.66c.12,0,.18-.1.14-.25l0-.13c0-.12-.1-.17-.22-.14l-.14,0,.14.51Z" style="fill:#263238"></path><path d="M163.06,158.23,162.7,157l-.25.08,0-.14.65-.19.05.14-.26.07.36,1.23Z" style="fill:#263238"></path><path d="M156.6,162l.06.19a.33.33,0,1,1-.64.18l-.21-.71a.33.33,0,1,1,.64-.19l0,.14-.2.06,0-.15c0-.1-.08-.12-.15-.1s-.1.07-.07.16l.21.74c0,.1.09.12.15.1s.11-.06.08-.16l-.06-.2Z" style="fill:#263238"></path><path d="M156.56,161.46a.34.34,0,1,1,.66-.19l.2.71a.31.31,0,0,1-.22.44.32.32,0,0,1-.43-.25Zm.43.66c0,.1.08.13.15.11s.1-.07.07-.17l-.21-.74c0-.1-.08-.12-.15-.1s-.1.07-.08.16Z" style="fill:#263238"></path><path d="M157.91,161.93l-.16-1.17.2-.06.18,1.43-.32.1-.61-1.31.22-.06Z" style="fill:#263238"></path><path d="M158,160.67l.22-.06.4,1.37-.22.06Z" style="fill:#263238"></path><path d="M158.42,160.56l.34-.09c.21-.07.35,0,.42.24l.2.69a.32.32,0,0,1-.22.44l-.34.1Zm.27.14.28,1,.13,0c.06,0,.09-.07.07-.16l-.21-.72c0-.09-.08-.12-.15-.1Z" style="fill:#263238"></path><path d="M159.38,160.92l.39-.11,0,.19-.39.12Z" style="fill:#263238"></path><path d="M159.93,160.31a.22.22,0,0,0,.18-.24l.15,0,.4,1.37-.22.06-.3-1-.17.05Z" style="fill:#263238"></path><path d="M161.45,160.8a.34.34,0,1,1-.65.2v0l.21-.05v0c0,.1.08.13.15.11s.11-.08.07-.21l-.07-.25a.21.21,0,0,1-.16.18c-.16.05-.28,0-.33-.24l-.08-.25a.34.34,0,1,1,.66-.19Zm-.35-.41-.07-.24c0-.1-.08-.12-.15-.1s-.1.06-.08.16l.08.25c0,.1.08.12.15.1S161.13,160.49,161.1,160.39Z" style="fill:#263238"></path><path d="M167.89,180.38l-6.75,2a1.81,1.81,0,0,1-2.24-1.23h0a1.82,1.82,0,0,1,1.23-2.24l6.76-2a1.79,1.79,0,0,1,2.23,1.23h0A1.79,1.79,0,0,1,167.89,180.38Z" style="fill:#92E3A9"></path><path d="M161.43,179.54l.21-.06.4,1.37-.22.06Z" style="fill:#fff"></path><path d="M162.54,180.27l-.14-1,.3-.09.4,1.37-.21.06-.28-1,.14,1-.21.06-.44-.92.28,1-.19.05-.39-1.37.29-.08Z" style="fill:#fff"></path><path d="M163.59,180l-.13-1,.3-.09.4,1.37-.21.06-.28-1,.13,1-.2.06-.44-.92.28,1-.19.05-.4-1.36.3-.09Z" style="fill:#fff"></path><path d="M164.12,178.76l.31,1.05c0,.1.08.12.15.1s.1-.06.07-.16l-.31-1.06.21-.06.3,1.05a.33.33,0,1,1-.64.18l-.31-1Z" style="fill:#fff"></path><path d="M165,178.91l.29,1-.19.06-.4-1.37.27-.08.46.76-.24-.82.19-.06.4,1.37-.22.07Z" style="fill:#fff"></path><path d="M165.91,178.86l.3-.08,0,.19-.29.09.12.4.37-.11,0,.2-.58.17-.4-1.37.59-.17,0,.19-.37.11Z" style="fill:#fff"></path><path d="M157.12,167.68l-1.92.55-.55-1.91,1.91-.56Zm-1.72.2,1.37-.4-.4-1.37-1.37.4Z" style="fill:#263238"></path><rect x="155.52" y="166.64" width="0.72" height="0.72" transform="translate(-40.46 50.23) rotate(-16.23)" style="fill:#263238"></rect><path d="M164.93,165.4,163,166l-.55-1.91,1.91-.56Zm-1.72.21,1.37-.4-.4-1.37-1.37.4Z" style="fill:#263238"></path><rect x="163.33" y="164.37" width="0.72" height="0.72" transform="translate(-39.51 52.31) rotate(-16.23)" style="fill:#263238"></rect><path d="M159.4,175.52l-1.91.55-.56-1.91,1.91-.56Zm-1.72.2,1.37-.4-.4-1.37-1.37.4Z" style="fill:#263238"></path><rect x="157.81" y="174.48" width="0.72" height="0.72" transform="translate(-42.56 51.17) rotate(-16.23)" style="fill:#263238"></rect><rect x="157.1" y="165.63" width="0.71" height="0.71" transform="translate(-40.11 50.62) rotate(-16.23)" style="fill:#263238"></rect><rect x="157.91" y="166.04" width="0.71" height="0.71" transform="translate(-40.18 50.83) rotate(-16.22)" style="fill:#263238"></rect><rect x="161.68" y="166.97" width="0.71" height="0.71" transform="translate(-40.31 51.96) rotate(-16.23)" style="fill:#263238"></rect><rect x="162.85" y="166.41" width="2.23" height="0.71" transform="translate(-40.07 52.46) rotate(-16.23)" style="fill:#263238"></rect><rect x="159.54" y="170.49" width="0.71" height="0.71" transform="translate(-41.37 51.49) rotate(-16.23)" style="fill:#263238"></rect><rect x="159.97" y="171.98" width="0.71" height="0.71" transform="translate(-41.77 51.67) rotate(-16.23)" style="fill:#263238"></rect><rect x="161.79" y="170.73" width="0.71" height="0.71" transform="matrix(0.96, -0.28, 0.28, 0.96, -41.33, 52.1)" style="fill:#263238"></rect><rect x="162.15" y="168.18" width="0.71" height="0.71" transform="translate(-40.63 52.13) rotate(-16.23)" style="fill:#263238"></rect><rect x="164.04" y="166.77" width="0.71" height="0.71" transform="translate(-40.15 52.6) rotate(-16.23)" style="fill:#263238"></rect><rect x="160.13" y="168.96" width="0.71" height="0.71" transform="translate(-40.93 51.6) rotate(-16.23)" style="fill:#263238"></rect><rect x="160.47" y="170.12" width="0.71" height="0.71" transform="translate(-41.24 51.74) rotate(-16.23)" style="fill:#263238"></rect><rect x="162.47" y="169.54" width="0.71" height="0.71" transform="translate(-40.99 52.27) rotate(-16.23)" style="fill:#263238"></rect><rect x="162.91" y="168.55" width="0.71" height="0.71" transform="translate(-40.7 52.36) rotate(-16.23)" style="fill:#263238"></rect><rect x="163.58" y="168.36" width="0.71" height="0.71" transform="translate(-40.62 52.53) rotate(-16.23)" style="fill:#263238"></rect><rect x="163.76" y="168.96" width="0.71" height="0.71" transform="translate(-40.78 52.61) rotate(-16.23)" style="fill:#263238"></rect><rect x="164.73" y="169.14" width="0.71" height="0.71" transform="translate(-40.77 52.86) rotate(-16.22)" style="fill:#263238"></rect><rect x="165.15" y="170.8" width="0.71" height="0.71" transform="translate(-41.24 53.07) rotate(-16.23)" style="fill:#263238"></rect><rect x="165.24" y="172.69" width="0.71" height="0.71" transform="translate(-41.74 53.14) rotate(-16.22)" style="fill:#263238"></rect><rect x="166.09" y="172.44" width="0.71" height="0.71" transform="matrix(0.96, -0.28, 0.28, 0.96, -41.64, 53.37)" style="fill:#263238"></rect><rect x="164.37" y="171.75" width="0.71" height="0.71" transform="translate(-41.53 52.89) rotate(-16.23)" style="fill:#263238"></rect><rect x="161.63" y="173.13" width="1.72" height="0.71" transform="translate(-42 52.31) rotate(-16.23)" style="fill:#263238"></rect><rect x="164.67" y="172.25" width="1.72" height="0.71" transform="translate(-41.64 53.13) rotate(-16.23)" style="fill:#263238"></rect><rect x="156.97" y="172.47" width="1.72" height="0.71" transform="translate(-42 50.99) rotate(-16.23)" style="fill:#263238"></rect><rect x="165.68" y="169.95" width="0.71" height="1.98" transform="translate(-41.16 53.22) rotate(-16.23)" style="fill:#263238"></rect><rect x="163.94" y="169.57" width="0.71" height="0.71" transform="translate(-40.93 52.65) rotate(-16.22)" style="fill:#263238"></rect><rect x="160.68" y="167.9" width="0.71" height="1.66" transform="translate(-40.74 51.73) rotate(-16.23)" style="fill:#263238"></rect><rect x="160.99" y="171.52" width="1.85" height="0.71" transform="translate(-41.58 52.09) rotate(-16.23)" style="fill:#263238"></rect><rect x="159.52" y="172.92" width="0.71" height="1.28" transform="translate(-42.13 51.59) rotate(-16.23)" style="fill:#263238"></rect><rect x="159.84" y="174.33" width="0.71" height="0.71" transform="matrix(0.96, -0.28, 0.28, 0.96, -42.42, 51.71)" style="fill:#263238"></rect><rect x="160.76" y="174.06" width="0.71" height="0.71" transform="translate(-42.31 51.95) rotate(-16.22)" style="fill:#263238"></rect><rect x="160.45" y="173.23" width="0.71" height="0.71" transform="translate(-42.1 51.85) rotate(-16.23)" style="fill:#263238"></rect><rect x="162.7" y="173.49" width="0.71" height="0.71" transform="translate(-42.09 52.49) rotate(-16.23)" style="fill:#263238"></rect><rect x="163.21" y="171.83" width="0.71" height="0.71" transform="translate(-41.6 52.57) rotate(-16.23)" style="fill:#263238"></rect><rect x="160.67" y="164.72" width="0.71" height="0.71" transform="translate(-39.71 51.58) rotate(-16.23)" style="fill:#263238"></rect><rect x="161.55" y="164.49" width="0.71" height="2.17" transform="translate(-39.82 51.84) rotate(-16.23)" style="fill:#263238"></rect><rect x="157.41" y="166.69" width="0.71" height="0.71" transform="translate(-40.38 50.73) rotate(-16.22)" style="fill:#263238"></rect><rect x="158.23" y="167.15" width="0.71" height="0.71" transform="translate(-40.49 50.99) rotate(-16.23)" style="fill:#263238"></rect><rect x="157.5" y="168.54" width="0.71" height="0.71" transform="translate(-40.89 50.82) rotate(-16.22)" style="fill:#263238"></rect><rect x="160.17" y="166.59" width="0.71" height="0.71" transform="translate(-40.26 51.51) rotate(-16.23)" style="fill:#263238"></rect><rect x="158.62" y="168.29" width="0.71" height="0.71" transform="translate(-40.8 51.15) rotate(-16.23)" style="fill:#263238"></rect><rect x="158.16" y="169.1" width="0.71" height="0.71" transform="translate(-41.02 51.02) rotate(-16.22)" style="fill:#263238"></rect><rect x="155.85" y="169.77" width="0.71" height="0.71" transform="translate(-41.31 50.41) rotate(-16.22)" style="fill:#263238"></rect><rect x="157.21" y="170.63" width="0.71" height="0.71" transform="translate(-41.51 50.85) rotate(-16.23)" style="fill:#263238"></rect><rect x="156.92" y="169.63" width="0.71" height="0.71" transform="translate(-41.23 50.7) rotate(-16.22)" style="fill:#263238"></rect><rect x="156.87" y="171.36" width="0.71" height="0.71" transform="translate(-41.73 50.79) rotate(-16.23)" style="fill:#263238"></rect><rect x="158.25" y="170.99" width="0.71" height="1.91" transform="translate(-41.73 51.17) rotate(-16.23)" style="fill:#263238"></rect><rect x="159.17" y="170.72" width="0.71" height="1.91" transform="translate(39.27 372.83) rotate(-106.23)" style="fill:#263238"></rect><rect x="156.12" y="167.75" width="0.71" height="1.91" transform="translate(38.23 366.09) rotate(-106.23)" style="fill:#263238"></rect><rect x="160.59" y="165.76" width="0.71" height="0.71" transform="translate(-40.01 51.6) rotate(-16.23)" style="fill:#263238"></rect><rect x="158.9" y="165.77" width="1.33" height="2.34" transform="translate(-40.29 51.24) rotate(-16.23)" style="fill:#263238"></rect><rect x="155.55" y="183.05" width="18.91" height="2.79" transform="translate(-44.96 53.45) rotate(-16.23)" style="fill:#bababa"></rect><path d="M167.16,156a.23.23,0,0,0,.15-.29l-.65-2.25a.24.24,0,0,0-.29-.16l0,0-1.22-4.19a1.51,1.51,0,0,0-1.87-1l-15.93,4.64a1.5,1.5,0,0,0-1,1.87l9.84,33.84a1.52,1.52,0,0,0,1.87,1l15.93-4.64a1.51,1.51,0,0,0,1-1.87l-6-20.59h0a.22.22,0,0,0,.16-.29l-.65-2.24a.25.25,0,0,0-.29-.16l0,0-.15-.51h0a.22.22,0,0,0,.16-.28l-.65-2.25a.25.25,0,0,0-.29-.16l0,0-.15-.51Zm6.75,26.48-17.15,5-9.33-32.06,17.15-5Z" style="fill:#263238"></path><rect x="148.16" y="154.4" width="17.15" height="2.51" transform="translate(-37.25 50) rotate(-16.23)" style="fill:#92E3A9"></rect><path d="M170.51,158.14s1.51-3.58-1.13-4.52-3.39.75-3.95,3-2.83,6.22-.94,7.35,3.2.19,3.95-1.32S170.51,158.14,170.51,158.14Z" style="fill:#fff;stroke:#263238;stroke-miterlimit:10"></path><path d="M171.27,157.2s3.39.37,3.2,4.71-3,7.34-4.71,7.53-1.69-2.82-.94-4.14,1.69-7.16,1.69-7.16Z" style="fill:#fff;stroke:#263238;stroke-miterlimit:10"></path><path d="M174.28,163.41a6,6,0,0,1,2.26,3.58c.38,2.26-3.39,5.65-4.9,5.65s-1.13-3.39,0-4.14S174.28,163.41,174.28,163.41Z" style="fill:#fff;stroke:#263238;stroke-miterlimit:10"></path><path d="M147.34,175.09a27.89,27.89,0,0,1-1.13-6.21c0-2.45-4.52-4.52-2.26-6.6s5.84.95,7.16,4.9-.19,5.65-1.13,6" style="fill:#fff;stroke:#263238;stroke-miterlimit:10"></path></g></svg>