<svg xmlns="http://www.w3.org/2000/svg" viewBox="0 0 500 500"><g id="freepik--background-simple--inject-170"><path d="M470.59,130.9c-7.63-19.1-18.9-36.24-37.07-50.68C390.5,46,330.94,48,280,59.56s-84,47.85-108,92.05c-13.28,24.42-42.85,31.64-68.21,36-36.91,6.31-70.74,15-87.8,51.6C1.57,270,.88,308.37,10.41,340.74c10.12,34.39,37.24,58.47,70.93,69.1,28.71,9.07,57.6,6.84,87.16,4.57,35-2.69,63,11.6,95.81,21.21,35.77,10.46,73,16.88,110.34,14.18,58.1-4.2,83.85-49.15,98.77-100C493.53,281.22,497.54,198.34,470.59,130.9Z" style="fill:#92E3A9"></path><path d="M470.59,130.9c-7.63-19.1-18.9-36.24-37.07-50.68C390.5,46,330.94,48,280,59.56s-84,47.85-108,92.05c-13.28,24.42-42.85,31.64-68.21,36-36.91,6.31-70.74,15-87.8,51.6C1.57,270,.88,308.37,10.41,340.74c10.12,34.39,37.24,58.47,70.93,69.1,28.71,9.07,57.6,6.84,87.16,4.57,35-2.69,63,11.6,95.81,21.21,35.77,10.46,73,16.88,110.34,14.18,58.1-4.2,83.85-49.15,98.77-100C493.53,281.22,497.54,198.34,470.59,130.9Z" style="fill:#fff;opacity:0.7000000000000001"></path></g><g id="freepik--Door--inject-170"><rect x="260.32" y="94.67" width="167.3" height="351.01" style="fill:#fff;stroke:#263238;stroke-miterlimit:10"></rect><polygon points="269.66 94.67 269.66 275.59 427.38 392.78 427.38 408.96 409.81 395.93 409.81 445.5 396.81 445.5 396.81 386.28 340.91 344.8 340.91 445.5 327.91 445.5 327.91 335.22 327.99 335.22 269.66 291.8 269.66 445.69 427.62 445.69 427.62 94.67 269.66 94.67" style="fill:#263238"></polygon></g><g id="freepik--Arrows--inject-170"><polygon points="463.44 130.16 463.44 101.61 451.49 101.61 451.49 130.26 436.39 118.6 436.39 132.45 456.4 151.89 457.41 152.86 458.41 151.89 478.43 132.45 478.43 118.6 463.44 130.16" style="fill:none;stroke:#263238;stroke-miterlimit:10"></polygon><polygon points="451.1 210.52 451.1 195 444.6 195 444.6 210.57 436.39 204.24 436.39 211.76 447.27 222.33 447.82 222.86 448.36 222.33 459.24 211.76 459.24 204.24 451.1 210.52" style="fill:none;stroke:#263238;stroke-miterlimit:10"></polygon><polygon points="147.88 112.04 119.34 112.04 119.34 124 147.98 124 136.33 139.1 150.17 139.1 169.61 119.09 170.59 118.08 169.61 117.08 150.17 97.06 136.33 97.06 147.88 112.04" style="fill:none;stroke:#263238;stroke-miterlimit:10"></polygon><polygon points="69.4 103.39 57.34 103.39 57.34 108.45 69.44 108.45 64.52 114.83 70.37 114.83 78.59 106.37 79 105.94 78.59 105.52 70.37 97.06 64.52 97.06 69.4 103.39" style="fill:none;stroke:#263238;stroke-miterlimit:10"></polygon><polygon points="77.82 375.02 65.75 375.02 65.75 380.08 77.86 380.08 72.93 386.46 78.78 386.46 87 378 87.41 377.57 87 377.15 78.78 368.69 72.93 368.69 77.82 375.02" style="fill:none;stroke:#263238;stroke-miterlimit:10"></polygon><polygon points="221.88 410.04 193.34 410.04 193.34 422 221.98 422 210.33 437.1 224.17 437.1 243.61 417.09 244.59 416.08 243.61 415.08 224.17 395.06 210.33 395.06 221.88 410.04" style="fill:none;stroke:#263238;stroke-miterlimit:10"></polygon></g><g id="freepik--Character--inject-170"><path d="M136.92,429.61s2.75,7.94,4.89,10.08,5.8,5.2,5.8,5.2,0,1.22-1.83,1.83-11-.61-12.84-1.22-5.5-5.2-8.86-8.25-7.33-5.81-6.11-9.47,6.72-8.56,6.72-8.56Z" style="fill:#fff;stroke:#263238;stroke-miterlimit:10"></path><path d="M145.78,446.72A3.12,3.12,0,0,0,147,446c-8.6.39-16-5.37-19.14-9.4-2.91-3.7-7.48-8.44-9.27-10.26a8.39,8.39,0,0,0-.66,1.45c-1.22,3.66,2.75,6.41,6.11,9.47s7,7.64,8.86,8.25S143.94,447.33,145.78,446.72Z" style="fill:#fff;stroke:#263238;stroke-miterlimit:10"></path><path d="M169,274.36s-4.28,12.83-3.67,21.39,8.87,22.91,8.87,22.91l-4.88,55.95s-17.73,6.72-24.14,15-22,30.25-22,30.25a12.37,12.37,0,0,0,3.36,5.19c2.44,2.14,9.47,4.59,10.39,4.59s2.44-5.5,2.44-5.5,8.56-10.7,10.7-11,35.14-30.86,38.19-33,7.95-4.89,8.25-8.86,13.44-55.34,14.35-58.39S217,282.3,217,282.3Z" style="fill:#263238;stroke:#263238;stroke-miterlimit:10"></path><path d="M335.22,186.31s13.36-5.8,17.55-8.37,6.44-6,7.73-4.67-.65,5.47-1.94,6.6-8.05,4.18-9.17,5,.64.32,6.76-.32,7.89-2.58,8.05-.49-2.58,4.35-4.83,5.16-11.92,1.28-11.92,1.28l12.24,3.87c.48.16.81,1.61-1.45,2.57s-6.92-.32-8.85-1.28a20,20,0,0,0-3.06-1.29s2.57,4,3.7,4.83.48,1.93-1.29,1.93S342,196,342,196s-2.9,2.09-4.83,2.09a14.08,14.08,0,0,1-4.67-1.29l-2.41.81-4.83-8.05Z" style="fill:#fff;stroke:#263238;stroke-miterlimit:10"></path><path d="M326.85,189.53s13-6.28,16.26-8.05,5.31-6.12,6.44-4.35a4,4,0,0,1-.32,5.31c-1.61,1.94-6.44,4.35-6.93,4.51s-2.57,3.54-4.34,5-4.67,1.13-4.67,1.13" style="fill:#fff;stroke:#263238;stroke-miterlimit:10"></path><polygon points="316.87 192.1 327.97 188.56 330.87 197.74 321.05 202.41 316.87 192.1" style="fill:#fff;stroke:#263238;stroke-miterlimit:10"></polygon><rect x="32.89" y="256.95" width="75.57" height="50.88" rx="3.88" transform="translate(276.41 76.45) rotate(59.02)" style="fill:#263238;stroke:#263238;stroke-miterlimit:10"></rect><path d="M92.73,255.18l-8.66,5.2,11.36,18.93,8.66-5.2a4.12,4.12,0,0,0,1.41-5.65l-7.12-11.87A4.12,4.12,0,0,0,92.73,255.18Zm3.09,20.4-8.28-13.79,4.81-2.89A4.11,4.11,0,0,1,98,260.31l4.05,6.74a4.12,4.12,0,0,1-1.41,5.65Z" style="fill:#263238;stroke:#263238;stroke-miterlimit:10"></path><path d="M112.32,250s-2.93,4.14-1.71,7.07,2,8.77.73,9.74-3.16,3.66-3.41,5.12a1.22,1.22,0,1,1-2.43-.25,44.58,44.58,0,0,1,.48-5.11l-5.36,3.65s-3.16,0-2.92-1.7a25.54,25.54,0,0,0,.24-3.17,40.13,40.13,0,0,1-1.7-4.63c-.24-1.22-1-4.14.49-5.6s9.74-7.31,9.74-7.31l3.17-2.43Z" style="fill:#fff;stroke:#263238;stroke-miterlimit:10"></path><line x1="105.98" y1="266.54" x2="108.91" y2="265.08" style="fill:#fff;stroke:#263238;stroke-miterlimit:10"></line><polygon points="114.27 239.5 107.2 245.59 112.32 253.87 118.89 248.27 114.27 239.5" style="fill:#fff;stroke:#263238;stroke-miterlimit:10"></polygon><path d="M215,205.41s-25.67-2-30.18,0-50.5,21.16-59.8,26-13.26,8.18-12.7,10.15,3.39,8.75,6.77,8.75,27.08-10.72,32.72-12.42,31-5.92,31-5.92-14.39,39.21-15,42.6-1.12,4.79,4.8,8.74,27.36,8.18,32.72,7.06,12.13-5.93,12.42-7.06,2.82-9.59,3.38-10.72,24.54-35.26,24.54-36.11,36.68-13.82,48-18.9S320,206,321.4,204.28s2.54-3.94,1.41-6.2-3.11-7.05-7.06-6.77-18.05,8.46-22.85,9.87S243.82,208,243,208s-13-2-15.23-2S215,205.41,215,205.41Z" style="fill:#fff;stroke:#263238;stroke-miterlimit:10"></path><path d="M223.27,220.38l1.92,11.05S217,237.19,207.9,229s-12.49-21.13-29.3-22.1-31.7,1.93-42.27,1l-10.57,9.6,13,10.09s31.22-9.13,41.79-10.09,12,9.61,23.53,17.77,23.54-.48,23.54-.48l10.08-11-1-11.05-8.64-3.36Z" style="fill:#263238"></path><path d="M201.3,221.58l-5,6.6a47.12,47.12,0,0,0,5.78,5.63l4.5-6A63.06,63.06,0,0,1,201.3,221.58Z" style="fill:#92E3A9"></path><path d="M236.71,212.7l-5.19-2-8.07,10.75,1.74,10a13.2,13.2,0,0,1-10.39,1.51l-4,5.37a20.1,20.1,0,0,0,10.38-.5l15.92-21.17Z" style="fill:#92E3A9"></path><path d="M145.4,208l-11.75,15.64,5.08,4,2.5-.72,14.65-19.51C152.17,207.61,148.66,207.86,145.4,208Z" style="fill:#92E3A9"></path><path d="M194.93,214.05a25,25,0,0,0-6.49-4.67l-6.07,8.07a11.24,11.24,0,0,1,7.48,3.36Z" style="fill:#92E3A9"></path><path d="M178.25,206.92c-3.38-.18-6.68-.21-9.89-.15l-12,15.95c4.07-1.06,8.34-2.14,12.29-3Z" style="fill:#92E3A9"></path><line x1="245.79" y1="236.44" x2="260.18" y2="218.39" style="fill:none;stroke:#263238;stroke-miterlimit:10"></line><line x1="250.87" y1="229.96" x2="266.95" y2="216.41" style="fill:none;stroke:#263238;stroke-miterlimit:10"></line><polyline points="190.5 231.08 182.89 231.93 189.37 235.03" style="fill:none;stroke:#263238;stroke-miterlimit:10"></polyline><path d="M179.78,285.53S202.35,281.3,208,279" style="fill:none;stroke:#263238;stroke-miterlimit:10"></path><path d="M193.61,278.19s-13.55,5.08-18.62,5.36" style="fill:none;stroke:#263238;stroke-miterlimit:10"></path><path d="M220.92,199.45l-10.08,6,7.29,22.31,9.66-10.72,2.36,7.72,4.93-7.51,8.37,3.86s-8.15-18.24-8.8-19.1S226.71,196,220.92,199.45Z" style="fill:#fff;stroke:#263238;stroke-miterlimit:10"></path><path d="M219.42,198.59a25.39,25.39,0,0,0,.64,6.87c.86,3.43,7.73,11.59,7.73,11.59l2.36,7.72s3.86-9.23,4.29-10.3,4.5-23,4.5-23Z" style="fill:#fff;stroke:#263238;stroke-miterlimit:10"></path><polyline points="223.5 205.62 236.41 204.96 237.9 196.85 223.5 205.62" style="fill:#263238;stroke:#263238;stroke-miterlimit:10"></polyline><path d="M215.51,156.22s-4.72-5.74.82-7.79,19.7-1,26.06,2.24,8.59,9.89,8.59,16.66-3.91,13.08-4.32,13.69-4.51,2-6.76,1.85-.62-6.36-2.05-8.82-5.74-3.69-5.74-6.35.61-6.56-2.05-6.76-9.43.61-10,1.23-.62,4.3-1.44,6.55-1.43,6.15-2.66,4.72-3.9-6.36-3.08-10.25a12,12,0,0,1,2.67-5.74Z" style="fill:#263238;stroke:#263238;stroke-miterlimit:10"></path><path d="M217.15,159.3s-2.87,12.7-2.67,15,1,4.3,1,5.53-1.23,5.13-1.23,7.38,4.71,16.6,4.71,16.6,2.46,1.85,4.51,1.85,16.81-9,17.42-10.25a20.63,20.63,0,0,0,1-4.51s5.74-2.87,7.17-6.35-1.43-6.36-3.28-6.36S242,181,242,181l-1.85-.82s1.85-7,.82-8.4-5.74-2.05-5.12-3.9,3.69-3.07,3.48-5.94-7-4.92-12.09-4.71-4.71,2.05-6.56,2.25A11,11,0,0,1,217.15,159.3Z" style="fill:#fff;stroke:#263238;stroke-miterlimit:10"></path><path d="M222.07,176.72s-.82,5.53-1,6.56-3.89,4.71-2.87,5.73,4.72,1.23,4.72,1.23" style="fill:none;stroke:#263238;stroke-miterlimit:10"></path><line x1="220.63" y1="193.93" x2="224.94" y2="194.14" style="fill:none;stroke:#263238;stroke-miterlimit:10"></line><ellipse cx="227.91" cy="179.28" rx="1.13" ry="1.74" style="fill:#263238"></ellipse><path d="M219.51,178.36c0,1-.51,1.74-1.13,1.74s-1.13-.78-1.13-1.74.51-1.75,1.13-1.75S219.51,177.39,219.51,178.36Z" style="fill:#263238"></path><path d="M226,173.44s4.1-2.87,6.76,1.43" style="fill:none;stroke:#263238;stroke-miterlimit:10"></path><path d="M221,174.26s-2.25-2.26-5.33,0" style="fill:none;stroke:#263238;stroke-miterlimit:10"></path><path d="M147.57,341.92s-7.81-5.11-9.32-5.11-6.3,3.6-6.3,5.41-6,13.21-7.51,17.72-2.41,8.11.3,9.61,6.61-3.6,9-5.4,11.71-9,11.71-9l4.81-.6-1.5-12.31Z" style="fill:#fff;stroke:#263238;stroke-miterlimit:10"></path><path d="M138.25,336.81c-1.5,0-6.3,3.6-6.3,5.41s-6,13.21-7.51,17.72-2.41,8.11.3,9.61a2,2,0,0,0,1.09.27c0-.43,0-.92.06-1.46.33-4.68,2.68-10,7.69-20.4a63.27,63.27,0,0,1,6.22-10.61A4.7,4.7,0,0,0,138.25,336.81Z" style="fill:#fff;stroke:#263238;stroke-miterlimit:10"></path><path d="M211,329.6s-14.12-.6-24.63,3.91-38.75,8.41-38.75,8.41-.9,9.31.6,11.71l1.5,2.41c24.83-3.74,15.36-3.74,43.86-4.81,15.92-.6,43.26-4.81,50.47-7.21s9.31-4.51,9.91-6.91-8.41-3.3-14.12-5.11" style="fill:#263238;stroke:#263238;stroke-miterlimit:10"></path><path d="M180.61,288.14s31.84,6.61,50.77,16.83,25.53,20.42,25.53,25.83-4.2,9-8.71,10.82S183.92,327.2,174,317.28s-12.61-27.93-7.81-30.34a41.63,41.63,0,0,1,6-2.7" style="fill:#263238;stroke:#263238;stroke-miterlimit:10"></path></g><g id="freepik--Floor--inject-170"><line x1="468.01" y1="445.68" x2="19.49" y2="445.68" style="fill:#fff;stroke:#263238;stroke-miterlimit:10"></line></g></svg>